<svg xmlns="http://www.w3.org/2000/svg" fill="none" viewBox="0 0 512 512"><rect width="512" height="512" rx="8" fill="#EEE"/><path d="M239.235 85.971c19.785 38.917-41.11 65.349-69.047 36.158-11.641-12.437-6.286-36.47 21.95-49.53 14.131-6.686 33.916-12.765 47.097 13.372ZM363.781 68.848c21.525 42.364-44.799 71.148-75.2 39.365-12.674-13.556-6.854-39.693 23.923-53.921 15.371-7.286 36.905-13.884 51.277 14.556Z" fill="#000"/><path fill-rule="evenodd" clip-rule="evenodd" d="M236.413 430.993c45.049 4.951 91.938-8.541 110.049-36.405 15.313-23.378 2.781-31.472-14.864-12.597-37.138 40.917-75.675 22.482-91.921-18.875l4.18-1.343c78.457-30.12 127.669-111.92 96.568-158.219-42.726-63.83-176.431-6.75-193.152 82.704-15.321 82.705 24.607 137.993 89.14 144.735Zm48.295-222.937c13.465 20.675-2.781 93.942-51.535 127.204-1.391-10.349-1.391-21.578-.466-33.262 9.75-81.809 37.612-115.512 52.001-93.942Z" fill="#000"/></svg>
